<?xml version="1.0" standalone="no"?>
<!DOCTYPE svg PUBLIC "-//W3C//DTD SVG 1.1//EN" "http://www.w3.org/Graphics/SVG/1.1/DTD/svg11.dtd" >
<svg xmlns="http://www.w3.org/2000/svg">
<metadata>Generated by IcoMoon</metadata>
<defs>
<font id="icomoon" horiz-adv-x="1024">
<font-face units-per-em="1024" ascent="960" descent="-64" />
<missing-glyph horiz-adv-x="1024" />
<glyph unicode="&#x20;" horiz-adv-x="409.6" d="" />
<glyph unicode="&#xe600;" glyph-name="baoxian" d="M494.933-55.467c-140.8 64-256 166.4-341.333 302.933-81.067 128-128 285.867-128 452.267 0 38.4 4.267 76.8 8.533 115.2 8.533 38.4 17.067 76.8 25.6 110.933 4.267 17.067 21.333 29.867 38.4 29.867v0h827.733c21.333 0 34.133-12.8 38.4-34.133 8.533-34.133 17.067-72.533 21.333-106.667 4.267-38.4 8.533-76.8 8.533-115.2 0-166.4-46.933-324.267-128-452.267-81.067-132.267-200.533-238.933-341.333-302.933-8.533-4.267-17.067-4.267-29.867 0v0zM904.533 580.267v0l-627.2-366.933c64-81.067 145.067-145.067 234.667-192 115.2 55.467 217.6 149.333 285.867 264.533 55.467 89.6 89.6 187.733 106.667 294.4v0zM247.467 256v0l665.6 384c0 21.333 4.267 42.667 4.267 59.733 0 21.333 0 42.667-4.267 64l-721.067-413.867c8.533-21.333 21.333-42.667 34.133-59.733 4.267-12.8 12.8-25.6 21.333-34.133v0zM170.667 392.533v0l733.867 422.4c0 21.333-4.267 38.4-8.533 59.733h-768c-4.267-21.333-8.533-46.933-12.8-72.533-4.267-29.867-4.267-68.267-4.267-102.4 0-110.933 21.333-213.333 59.733-307.2v0z" />
<glyph unicode="&#xe601;" glyph-name="jiazhenfuwu" d="M1019.733 823.467c0 34.133-12.8 68.267-38.4 89.6v0 0c-25.6 25.6-59.733 38.4-89.6 38.4-34.133 0-68.267-12.8-89.6-38.4l-217.6-217.6-12.8 8.533c-29.867 29.867-64 42.667-102.4 42.667-34.133 0-72.533-12.8-98.133-38.4l-4.267-4.267-149.333-145.067-196.267-200.533c-17.067-17.067-17.067-38.4 0-55.467 17.067-12.8 38.4-12.8 55.467 0l170.667 170.667 34.133-34.133-170.667-170.667c-17.067-17.067-17.067-38.4 0-55.467 12.8-17.067 38.4-17.067 55.467 0l170.667 170.667 34.133-34.133-170.667-170.667c-17.067-12.8-17.067-38.4 0-55.467 12.8-17.067 38.4-17.067 55.467 0l170.667 170.667 34.133-34.133-170.667-170.667c-12.8-17.067-12.8-38.4 0-55.467 17.067-17.067 38.4-17.067 55.467 0l170.667 170.667 34.133-34.133-170.667-170.667c-12.8-17.067-12.8-38.4 0-55.467 4.267-8.533 29.867-8.533 42.667 8.533l345.6 345.6c29.867 25.6 42.667 64 42.667 102.4s-12.8 72.533-42.667 102.4l-8.533 8.533 221.867 221.867c25.6 25.6 38.4 59.733 38.4 89.6v0zM925.867 789.333v0 0 0l-243.2-243.2c-17.067-12.8-17.067-38.4-4.267-55.467v-4.267l38.4-38.4c12.8-12.8 21.333-29.867 21.333-46.933s-8.533-34.133-21.333-46.933l-123.733-119.467-294.4 294.4 123.733 123.733c12.8 12.8 29.867 17.067 46.933 17.067s34.133-8.533 46.933-21.333v0l38.4-38.4c17.067-17.067 38.4-17.067 55.467 0 0 0 4.267 4.267 4.267 4.267v0 0l238.933 247.467c12.8 8.533 25.6 12.8 38.4 12.8s25.6-4.267 34.133-12.8v0 0c8.533-8.533 12.8-21.333 12.8-34.133 4.267-17.067-4.267-29.867-12.8-38.4v0zM413.867 563.2v0c-8.533 8.533-21.333 8.533-29.867 0-12.8-8.533-12.8-21.333 0-29.867l213.333-213.333c8.533-8.533 25.6-8.533 34.133 0s8.533 25.6 0 34.133l-217.6 209.067z" />
<glyph unicode="&#xe602;" glyph-name="jiaoyu" d="M59.733 494.933v-85.333l-51.2-119.467c-4.267-12.8 0-25.6 12.8-29.867s25.6 0 29.867 12.8l8.533 21.333v-21.333c0-12.8 8.533-21.333 21.333-21.333s21.333 8.533 21.333 21.333v21.333l8.533-21.333c4.267-12.8 17.067-17.067 29.867-12.8s17.067 17.067 12.8 29.867l-51.2 119.467v68.267l166.4-59.733v-179.2c0-29.867 34.133-59.733 81.067-76.8 42.667-12.8 102.4-21.333 166.4-21.333s123.733 8.533 170.667 21.333c51.2 17.067 81.067 42.667 81.067 76.8v0 0 0 179.2l221.867 81.067c8.533 4.267 17.067 12.8 21.333 21.333 8.533 21.333-4.267 42.667-21.333 51.2l-456.533 166.4c-8.533 4.267-17.067 4.267-25.6 0l-460.8-166.4c-8.533-4.267-17.067-12.8-21.333-25.6-8.533-21.333 4.267-42.667 21.333-46.933l12.8-4.267zM277.333 494.933v0l-102.4 38.4 345.6 128 345.6-123.733-106.667-38.4c-12.8 17.067-38.4 34.133-72.533 46.933-42.667 17.067-102.4 25.6-170.667 25.6-64 0-123.733-8.533-166.4-25.6-34.133-17.067-59.733-29.867-72.533-51.2v0zM725.333 302.933v0c-12.8 4.267-21.333 12.8-38.4 17.067-42.667 17.067-102.4 25.6-170.667 25.6-64 0-123.733-8.533-166.4-25.6-12.8-4.267-25.6-8.533-38.4-17.067v162.133c0 12.8 21.333 21.333 51.2 34.133 38.4 12.8 93.867 21.333 153.6 21.333s115.2-8.533 153.6-21.333c34.133-12.8 51.2-21.333 51.2-34.133v-162.133h4.267zM674.133 273.067v0c29.867-8.533 51.2-21.333 51.2-34.133v0 0c0-8.533-21.333-21.333-51.2-34.133-38.4-12.8-93.867-21.333-153.6-21.333s-115.2 8.533-153.6 21.333c-29.867 8.533-51.2 21.333-51.2 34.133v0 0c0 8.533 21.333 21.333 51.2 34.133 38.4 12.8 93.867 21.333 153.6 21.333s115.2-4.267 153.6-21.333v0z" />
<glyph unicode="&#xe603;" glyph-name="jinronglicai" d="M738.133 695.467c12.8 12.8 8.533 29.867 0 42.667l-4.267 4.267c-12.8 12.8-29.867 8.533-42.667 0l-170.667-187.733-166.4 200.533c-12.8 12.8-29.867 17.067-42.667 4.267l-4.267-4.267c-12.8-8.533-12.8-29.867-4.267-42.667l187.733-226.133c0 0 0 0 0 0v-34.133h-85.333c-17.067 0-29.867-12.8-29.867-29.867s12.8-29.867 29.867-29.867h85.333v-29.867h-85.333c-17.067 0-29.867-12.8-29.867-29.867s12.8-29.867 29.867-29.867h85.333v-140.8c0-17.067 17.067-34.133 34.133-34.133s34.133 17.067 34.133 34.133v140.8h72.533c17.067 0 29.867 12.8 29.867 29.867s-17.067 29.867-29.867 29.867h-72.533v29.867h72.533c17.067 0 29.867 12.8 29.867 29.867s-12.8 29.867-29.867 29.867h-72.533v38.4l179.2 204.8z" />
<glyph unicode="&#xe604;" glyph-name="kuaididaishou" d="M529.067 951.467v0l413.867-209.067c12.8-8.533 21.333-21.333 21.333-34.133v0-520.533c0-17.067-8.533-29.867-25.6-34.133l-413.867-204.8c-12.8-4.267-25.6-4.267-34.133 0v0l-413.867 209.067c-12.8 8.533-21.333 21.333-21.333 34.133v0 516.267c0 17.067 12.8 29.867 25.6 38.4l413.867 204.8c12.8 4.267 25.6 4.267 34.133 0v0zM375.467 802.133v0l345.6-174.933 140.8 68.267-349.867 174.933-136.533-68.267zM166.4 699.733v0l345.6-174.933 153.6 76.8-345.6 170.667-153.6-72.533zM136.533 661.333v0-448l354.133-179.2v452.267l-354.133 174.933zM537.6 34.133v0l354.133 179.2v448c-119.467-59.733-234.667-119.467-354.133-174.933v-452.267z" />
<glyph unicode="&#xe605;" glyph-name="luyou" d="M396.8 132.267l106.667 392.533c-34.133 4.267-64 8.533-93.867 8.533v0c-38.4 0-76.8-4.267-115.2-17.067-12.8-4.267-29.867 0-38.4 8.533-25.6 29.867-51.2 51.2-81.067 68.267s-59.733 34.133-93.867 42.667c-21.333 8.533-34.133 29.867-25.6 51.2 0 4.267 4.267 8.533 4.267 8.533v0c59.733 93.867 149.333 162.133 251.733 200.533 98.133 38.4 213.333 46.933 320 17.067 110.933-29.867 204.8-93.867 268.8-174.933 68.267-85.333 110.933-187.733 119.467-298.667 0-21.333-17.067-38.4-38.4-42.667-4.267 0-8.533 0-8.533 0-34.133 8.533-72.533 12.8-106.667 8.533-34.133 0-68.267-4.267-102.4-17.067-12.8-4.267-25.6 0-38.4 8.533-25.6 25.6-59.733 51.2-93.867 72.533-25.6 17.067-55.467 29.867-85.333 38.4l-102.4-388.267c17.067-4.267 34.133-8.533 46.933-12.8s21.333-8.533 34.133-12.8c17.067 4.267 38.4 12.8 59.733 12.8 25.6 4.267 46.933 4.267 72.533 4.267 46.933 0 93.867-8.533 136.533-21.333s85.333-34.133 123.733-64c17.067-12.8 21.333-38.4 8.533-55.467s-38.4-21.333-55.467-8.533c-29.867 21.333-64 38.4-98.133 51.2s-72.533 17.067-110.933 17.067c-8.533 0-17.067 0-25.6 0l8.533-4.267c17.067-12.8 21.333-38.4 8.533-55.467s-38.4-21.333-55.467-8.533c-42.667 38.4-85.333 59.733-128 76.8-42.667 12.8-89.6 21.333-140.8 21.333-46.933 0-93.867-8.533-136.533-21.333-46.933-12.8-85.333-38.4-123.733-64-17.067-12.8-42.667-8.533-55.467 8.533s-8.533 42.667 8.533 55.467c42.667 34.133 93.867 59.733 145.067 76.8s106.667 25.6 162.133 25.6c25.6-4.267 46.933-4.267 68.267-8.533v0zM840.533 691.2v0c-59.733 68.267-136.533 123.733-230.4 149.333s-187.733 17.067-273.067-12.8c-72.533-29.867-136.533-76.8-183.467-136.533 21.333-8.533 42.667-21.333 59.733-29.867 29.867-17.067 55.467-38.4 81.067-59.733 38.4 8.533 76.8 12.8 115.2 12.8v0c46.933 0 89.6-4.267 136.533-17.067s89.6-29.867 128-51.2c34.133-21.333 64-42.667 93.867-68.267 34.133 8.533 68.267 12.8 102.4 12.8 25.6 0 46.933 0 72.533-4.267-21.333 72.533-51.2 145.067-102.4 204.8v0z" />
<glyph unicode="&#xe606;" glyph-name="qicheleifuwu" d="M904.533 328.533h38.4v170.667h-827.733c-4.267 0-8.533 0-12.8 4.267-4.267 0-8.533-4.267-12.8-4.267v-170.667h29.867c21.333 0 38.4-17.067 38.4-38.4v-4.267c0-25.6 8.533-51.2 29.867-68.267v0c17.067-17.067 42.667-25.6 68.267-25.6s51.2 12.8 68.267 29.867c17.067 17.067 29.867 42.667 29.867 68.267v4.267c0 21.333 17.067 38.4 38.4 38.4v0 0h243.2c21.333 0 38.4-17.067 38.4-38.4v-4.267c0-25.6 12.8-51.2 29.867-68.267v0c17.067-17.067 42.667-25.6 68.267-25.6s51.2 12.8 68.267 29.867c17.067 17.067 29.867 42.667 29.867 68.267v4.267c-4.267 12.8 12.8 29.867 34.133 29.867v0 0 0zM768 324.267v0c21.333 0 38.4-17.067 38.4-38.4s-17.067-38.4-38.4-38.4c-21.333 0-38.4 17.067-38.4 38.4s17.067 38.4 38.4 38.4v0zM251.733 324.267v0c21.333 0 38.4-17.067 38.4-38.4s-17.067-38.4-38.4-38.4-38.4 17.067-38.4 38.4c-4.267 21.333 17.067 38.4 38.4 38.4v0zM746.667 546.133v0l-93.867 200.533h-430.933l-93.867-200.533h618.667zM981.333 251.733v0h-42.667c-8.533-34.133-25.6-64-46.933-89.6v0 0c-29.867-29.867-76.8-51.2-123.733-51.2s-89.6 17.067-123.733 51.2h-4.267c-25.6 25.6-42.667 55.467-46.933 89.6h-170.667c-8.533-34.133-21.333-64-46.933-89.6v0 0c-34.133-29.867-76.8-51.2-123.733-51.2s-89.6 17.067-123.733 51.2v0c-25.6 25.6-42.667 55.467-46.933 89.6h-34.133c-21.333 0-38.4 17.067-38.4 38.4v247.467c-4.267 21.333 17.067 38.4 38.4 38.4h12.8l106.667 221.867c4.267 17.067 21.333 25.6 38.4 25.6h477.867c12.8 0 29.867-8.533 34.133-21.333l102.4-226.133h162.133c21.333 0 38.4-17.067 38.4-38.4v-247.467c0-21.333-17.067-38.4-38.4-38.4v0z" />
<glyph unicode="&#xe607;" glyph-name="shenghuojiaofei" d="M896 328.533c0-106.667-42.667-200.533-110.933-268.8s-166.4-110.933-268.8-110.933c-106.667 0-200.533 42.667-268.8 110.933-76.8 68.267-119.467 162.133-119.467 268.8 0 247.467 213.333 422.4 349.867 605.867 12.8 17.067 38.4 21.333 55.467 8.533 4.267 0 4.267-4.267 8.533-8.533 140.8-183.467 354.133-358.4 354.133-605.867v0zM512 76.8v0c34.133 0 64 8.533 93.867 17.067 29.867 12.8 59.733 29.867 81.067 55.467s42.667 51.2 55.467 81.067v0c12.8 29.867 17.067 59.733 17.067 93.867 0 12.8-8.533 21.333-21.333 21.333s-21.333-8.533-21.333-21.333c0-25.6-4.267-55.467-17.067-76.8v0c-8.533-25.6-25.6-46.933-46.933-68.267-17.067-21.333-42.667-34.133-68.267-46.933-25.6-8.533-51.2-17.067-76.8-17.067-12.8 0-21.333-12.8-21.333-21.333 4.267-4.267 12.8-17.067 25.6-17.067v0zM729.6 110.933v0c55.467 55.467 89.6 132.267 89.6 217.6 0 209.067-183.467 366.933-302.933 520.533-128-153.6-307.2-311.467-307.2-520.533 0-85.333 34.133-162.133 89.6-217.6s132.267-89.6 217.6-89.6c81.067 4.267 157.867 38.4 213.333 89.6v0z" />
<glyph unicode="&#xe608;" glyph-name="yifuqingxi" d="M900.267 960h-776.533c-21.333 0-38.4-17.067-38.4-38.4v-942.933c0-25.6 17.067-42.667 38.4-42.667h772.267c21.333 0 38.4 17.067 38.4 38.4v947.2c4.267 21.333-12.8 38.4-34.133 38.4v0zM857.6 17.067v0h-695.467v661.333h695.467v-661.333zM857.6 725.333v0h-695.467v153.6h695.467v-153.6zM337.067 170.667v0 0c46.933-46.933 106.667-72.533 174.933-72.533s132.267 29.867 174.933 72.533v0 0c46.933 46.933 72.533 106.667 72.533 174.933s-29.867 132.267-72.533 174.933v0c-46.933 46.933-106.667 72.533-174.933 72.533s-132.267-29.867-174.933-72.533c-46.933-46.933-72.533-106.667-72.533-174.933-4.267-68.267 25.6-128 72.533-174.933v0 0zM665.6 405.333v0c0 4.267 4.267 4.267 4.267 8.533 8.533-21.333 12.8-42.667 12.8-64s-4.267-42.667-12.8-64c0 0-4.267 4.267-4.267 8.533-8.533 17.067-17.067 34.133-17.067 55.467 4.267 17.067 8.533 38.4 17.067 55.467v0zM392.533 469.333v0 0 0c29.867 29.867 72.533 51.2 119.467 51.2s89.6-21.333 119.467-51.2v0c4.267-4.267 8.533-8.533 12.8-12.8-8.533-8.533-12.8-17.067-21.333-29.867-12.8-25.6-21.333-51.2-21.333-81.067s8.533-55.467 21.333-81.067c4.267-8.533 12.8-21.333 21.333-25.6-4.267-4.267-8.533-8.533-12.8-12.8v0c-29.867-29.867-72.533-51.2-119.467-51.2s-89.6 17.067-119.467 51.2v0 0c-34.133 29.867-51.2 72.533-51.2 123.733 0 46.933 17.067 89.6 51.2 119.467v0zM763.733 763.733v0c21.333 0 38.4 17.067 38.4 38.4s-17.067 38.4-38.4 38.4c-21.333 0-38.4-17.067-38.4-38.4s17.067-38.4 38.4-38.4v0zM640 763.733v0c21.333 0 38.4 17.067 38.4 38.4s-17.067 38.4-38.4 38.4c-21.333 0-38.4-17.067-38.4-38.4s17.067-38.4 38.4-38.4v0zM213.333 776.533v0h187.733c12.8 0 25.6 12.8 25.6 25.6s-8.533 21.333-25.6 21.333h-187.733c-12.8 0-21.333-8.533-21.333-21.333-4.267-12.8 8.533-25.6 21.333-25.6v0z" />
<glyph unicode="&#xe609;" glyph-name="fuwuanniu" d="M507.733 960c140.8 0 268.8-55.467 358.4-149.333v-4.267c89.6-89.6 149.333-217.6 149.333-358.4s-55.467-268.8-149.333-358.4c-93.867-93.867-217.6-149.333-358.4-149.333s-268.8 55.467-358.4 149.333v0c-93.867 93.867-149.333 221.867-149.333 362.667s55.467 268.8 149.333 358.4l4.267 4.267c89.6 89.6 217.6 145.067 354.133 145.067v0zM379.733 644.267v0c-17.067 0-38.4-8.533-51.2-21.333v0c-12.8-12.8-21.333-29.867-21.333-51.2s8.533-38.4 21.333-51.2v0c12.8-12.8 29.867-21.333 51.2-21.333s38.4 8.533 51.2 21.333v0c12.8 12.8 21.333 29.867 21.333 51.2s-8.533 38.4-21.333 51.2v0c-12.8 12.8-29.867 21.333-51.2 21.333v0zM401.067 588.8v0c-8.533 4.267-12.8 8.533-21.333 8.533s-12.8-4.267-17.067-8.533v0c-4.267-4.267-8.533-8.533-8.533-17.067s4.267-12.8 8.533-17.067v0c4.267-4.267 12.8-8.533 17.067-8.533 8.533 0 12.8 4.267 17.067 8.533v0c4.267 4.267 8.533 12.8 8.533 17.067 0 8.533 0 12.8-4.267 17.067v0 0zM635.733 644.267v0c-21.333 0-38.4-8.533-51.2-21.333v0c-12.8-12.8-21.333-29.867-21.333-51.2s8.533-38.4 21.333-51.2v0c12.8-12.8 29.867-21.333 51.2-21.333s38.4 8.533 51.2 21.333v0c12.8 12.8 21.333 29.867 21.333 51.2s-8.533 38.4-21.333 51.2v0c-12.8 12.8-29.867 21.333-51.2 21.333v0zM657.067 588.8v0c-4.267 4.267-12.8 8.533-17.067 8.533-8.533 0-12.8-4.267-17.067-8.533v0c-4.267-4.267-8.533-12.8-8.533-17.067 0-8.533 4.267-12.8 8.533-17.067v0c4.267-4.267 12.8-8.533 17.067-8.533 8.533 0 12.8 4.267 17.067 8.533v0c4.267 4.267 8.533 12.8 8.533 17.067-4.267 8.533-4.267 12.8-8.533 17.067v0 0zM802.133 452.267v0c0-162.133-132.267-290.133-290.133-290.133-162.133 0-290.133 132.267-290.133 290.133 0 12.8-8.533 25.6-21.333 25.6s-25.6-8.533-25.6-25.6c0-187.733 153.6-337.067 337.067-337.067 187.733 0 337.067 153.6 337.067 337.067 0 12.8-8.533 25.6-21.333 25.6s-25.6-12.8-25.6-25.6v0zM814.933 755.2v0c-76.8 76.8-187.733 128-302.933 128-119.467 0-226.133-51.2-307.2-123.733v-4.267c-76.8-76.8-128-183.467-128-302.933s46.933-226.133 128-302.933v0 0c76.8-76.8 183.467-128 302.933-128s226.133 46.933 302.933 128c76.8 76.8 128 187.733 128 302.933s-46.933 221.867-123.733 302.933v0 0z" />
<glyph unicode="&#xe60a;" glyph-name="gouwuche" d="M38.4 605.867h712.533l76.8 281.6c4.267 17.067 21.333 29.867 38.4 29.867h115.2c25.6 0 42.667-17.067 42.667-38.4s-17.067-38.4-38.4-38.4h-85.333l-179.2-678.4c12.8-4.267 25.6-12.8 34.133-25.6 17.067-17.067 29.867-42.667 29.867-72.533s-12.8-55.467-29.867-72.533v0c-17.067-17.067-42.667-29.867-72.533-29.867s-55.467 12.8-72.533 29.867c-17.067 17.067-29.867 42.667-29.867 72.533 0 21.333 4.267 38.4 17.067 55.467h-307.2c8.533-17.067 17.067-34.133 17.067-55.467 0-29.867-12.8-55.467-29.867-72.533s-42.667-29.867-72.533-29.867c-29.867 0-55.467 12.8-72.533 29.867v0c-17.067 17.067-29.867 42.667-29.867 72.533 0 21.333 4.267 38.4 17.067 55.467-21.333 4.267-34.133 21.333-34.133 38.4 0 21.333 17.067 38.4 38.4 38.4h520.533l25.6 98.133h-571.733c-21.333 0-38.4 12.8-38.4 34.133l-59.733 226.133c-4.267 21.333 8.533 42.667 29.867 46.933 4.267 0 8.533 4.267 8.533 4.267v0 0zM678.4 119.467v0c0 0-4.267 0-4.267 0v0 0c-12.8 0-25.6-8.533-34.133-17.067s-17.067-25.6-17.067-38.4c0-17.067 4.267-29.867 17.067-38.4 8.533-8.533 25.6-17.067 38.4-17.067s29.867 4.267 38.4 12.8v0c8.533 8.533 17.067 25.6 17.067 38.4 0 17.067-4.267 29.867-17.067 38.4v0c-8.533 17.067-21.333 21.333-38.4 21.333v0 0zM209.067 119.467v0h-12.8c-12.8 0-21.333-8.533-29.867-12.8v0c-8.533-8.533-17.067-25.6-17.067-38.4 0-17.067 4.267-29.867 17.067-38.4 8.533-8.533 25.6-17.067 38.4-17.067 17.067 0 29.867 4.267 38.4 17.067 8.533 8.533 17.067 25.6 17.067 38.4 0 17.067-4.267 29.867-17.067 38.4-8.533 4.267-21.333 8.533-34.133 12.8v0zM733.867 524.8v0h-640l34.133-149.333h563.2l42.667 149.333z" />
<glyph unicode="&#xe60b;" glyph-name="uniE60B" d="M1019.733 823.467c0 34.133-12.8 68.267-38.4 89.6v0 0c-25.6 25.6-59.733 38.4-89.6 38.4-34.133 0-68.267-12.8-89.6-38.4l-217.6-217.6-12.8 8.533c-29.867 29.867-64 42.667-102.4 42.667-34.133 0-72.533-12.8-98.133-38.4l-4.267-4.267-149.333-145.067-196.267-200.533c-17.067-17.067-17.067-38.4 0-55.467 17.067-12.8 38.4-12.8 55.467 0l170.667 170.667 34.133-34.133-170.667-170.667c-17.067-17.067-17.067-38.4 0-55.467 12.8-17.067 38.4-17.067 55.467 0l170.667 170.667 34.133-34.133-170.667-170.667c-17.067-12.8-17.067-38.4 0-55.467 12.8-17.067 38.4-17.067 55.467 0l170.667 170.667 34.133-34.133-170.667-170.667c-12.8-17.067-12.8-38.4 0-55.467 17.067-17.067 38.4-17.067 55.467 0l170.667 170.667 34.133-34.133-170.667-170.667c-12.8-17.067-12.8-38.4 0-55.467 4.267-8.533 29.867-8.533 42.667 8.533l345.6 345.6c29.867 25.6 42.667 64 42.667 102.4s-12.8 72.533-42.667 102.4l-8.533 8.533 221.867 221.867c25.6 25.6 38.4 59.733 38.4 89.6v0zM925.867 789.333v0 0 0l-243.2-243.2c-17.067-12.8-17.067-38.4-4.267-55.467v-4.267l38.4-38.4c12.8-12.8 21.333-29.867 21.333-46.933s-8.533-34.133-21.333-46.933l-123.733-119.467-294.4 294.4 123.733 123.733c12.8 12.8 29.867 17.067 46.933 17.067s34.133-8.533 46.933-21.333v0l38.4-38.4c17.067-17.067 38.4-17.067 55.467 0 0 0 4.267 4.267 4.267 4.267v0 0l238.933 247.467c12.8 8.533 25.6 12.8 38.4 12.8s25.6-4.267 34.133-12.8v0 0c8.533-8.533 12.8-21.333 12.8-34.133 4.267-17.067-4.267-29.867-12.8-38.4v0zM413.867 563.2v0c-8.533 8.533-21.333 8.533-29.867 0-12.8-8.533-12.8-21.333 0-29.867l213.333-213.333c8.533-8.533 25.6-8.533 34.133 0s8.533 25.6 0 34.133l-217.6 209.067z" />
<glyph unicode="&#xe60c;" glyph-name="uniE60C" d="M529.067 951.467v0l413.867-209.067c12.8-8.533 21.333-21.333 21.333-34.133v0-520.533c0-17.067-8.533-29.867-25.6-34.133l-413.867-204.8c-12.8-4.267-25.6-4.267-34.133 0v0l-413.867 209.067c-12.8 8.533-21.333 21.333-21.333 34.133v0 516.267c0 17.067 12.8 29.867 25.6 38.4l413.867 204.8c12.8 4.267 25.6 4.267 34.133 0v0zM375.467 802.133v0l345.6-174.933 140.8 68.267-349.867 174.933-136.533-68.267zM166.4 699.733v0l345.6-174.933 153.6 76.8-345.6 170.667-153.6-72.533zM136.533 661.333v0-448l354.133-179.2v452.267l-354.133 174.933zM537.6 34.133v0l354.133 179.2v448c-119.467-59.733-234.667-119.467-354.133-174.933v-452.267z" />
<glyph unicode="&#xe60d;" glyph-name="search" d="M238.933 588.8c-4.267-12.8-21.333-17.067-34.133-12.8s-17.067 21.333-12.8 34.133c8.533 17.067 17.067 34.133 25.6 51.2 12.8 12.8 25.6 29.867 38.4 42.667s29.867 25.6 42.667 38.4c17.067 8.533 29.867 21.333 51.2 25.6 12.8 4.267 25.6 0 34.133-12.8 4.267-12.8 0-25.6-12.8-34.133s-29.867-12.8-42.667-21.333c-12.8-12.8-25.6-21.333-34.133-34.133v0c-12.8-8.533-21.333-21.333-34.133-34.133-8.533-12.8-12.8-25.6-21.333-42.667v0zM819.2 200.533v0l183.467-183.467c17.067-17.067 17.067-42.667 0-59.733s-42.667-17.067-59.733 0l-183.467 183.467c-34.133-29.867-76.8-55.467-119.467-72.533-55.467-21.333-115.2-34.133-174.933-34.133-64 0-119.467 12.8-174.933 34.133v0c-55.467 25.6-106.667 55.467-149.333 98.133s-76.8 93.867-98.133 149.333v0c-21.333 55.467-34.133 110.933-34.133 174.933s12.8 123.733 34.133 179.2c21.333 55.467 55.467 106.667 98.133 149.333 85.333 81.067 200.533 132.267 328.533 132.267 64 0 119.467-12.8 174.933-34.133v0c55.467-21.333 106.667-55.467 149.333-98.133l4.267-4.267c42.667-42.667 72.533-89.6 98.133-145.067v0c21.333-55.467 34.133-110.933 34.133-174.933s-12.8-119.467-34.133-174.933c-21.333-46.933-46.933-85.333-76.8-119.467v0zM610.133 840.533v0c-42.667 17.067-93.867 29.867-145.067 29.867-102.4 0-196.267-42.667-264.533-110.933-34.133-34.133-59.733-76.8-81.067-123.733-17.067-46.933-29.867-93.867-29.867-145.067s8.533-98.133 25.6-140.8v0c17.067-46.933 46.933-85.333 81.067-123.733v0c34.133-34.133 76.8-64 119.467-81.067s93.867-29.867 145.067-29.867c51.2 0 98.133 8.533 145.067 29.867s85.333 46.933 119.467 81.067v0 0c34.133 34.133 64 76.8 81.067 123.733 17.067 42.667 29.867 93.867 29.867 145.067s-8.533 98.133-25.6 140.8v4.267c-17.067 46.933-46.933 85.333-81.067 119.467v0c-29.867 34.133-72.533 59.733-119.467 81.067v0 0zM712.533 494.933v0c0 12.8 12.8 25.6 25.6 25.6s25.6-12.8 25.6-25.6c0-38.4-8.533-76.8-21.333-115.2v0c-12.8-34.133-34.133-68.267-64-98.133s-59.733-51.2-98.133-64c-38.4-17.067-76.8-21.333-115.2-21.333-12.8 0-25.6 12.8-25.6 25.6s12.8 25.6 25.6 25.6c34.133 0 64 8.533 93.867 17.067 29.867 12.8 55.467 29.867 81.067 51.2 21.333 21.333 42.667 51.2 55.467 81.067v0c12.8 29.867 17.067 64 17.067 98.133v0z" />
<glyph unicode="&#xe60e;" glyph-name="me" d="M149.333-21.333c0-21.333-17.067-38.4-38.4-38.4s-38.4 17.067-38.4 38.4c0 72.533 29.867 123.733 68.267 162.133 55.467 55.467 132.267 76.8 179.2 81.067 8.533 0 17.067 4.267 25.6 8.533 4.267 4.267 4.267 8.533 8.533 12.8-38.4 34.133-55.467 76.8-68.267 110.933-8.533 17.067-12.8 29.867-17.067 34.133v0 0 0 0c-17.067 17.067-38.4 42.667-51.2 76.8-17.067 34.133-17.067 68.267 0 98.133-8.533 29.867-12.8 64-12.8 98.133 0 42.667 4.267 85.333 21.333 123.733v4.267c17.067 55.467 51.2 93.867 93.867 123.733s98.133 42.667 157.867 46.933c21.333 0 55.467 0 85.333-4.267 34.133-4.267 68.267-21.333 85.333-46.933 42.667 4.267 76.8-17.067 106.667-51.2 34.133-38.4 59.733-98.133 64-132.267 4.267-25.6 4.267-51.2 0-81.067-4.267-21.333-8.533-46.933-12.8-68.267 21.333-34.133 17.067-68.267 4.267-102.4s-34.133-59.733-51.2-76.8v0 0 0c-4.267-4.267-8.533-17.067-17.067-34.133-17.067-42.667-34.133-85.333-68.267-115.2 0-4.267 4.267-8.533 8.533-12.8s12.8-8.533 25.6-8.533c46.933-4.267 123.733-25.6 179.2-81.067 38.4-38.4 68.267-93.867 68.267-162.133 0-21.333-17.067-38.4-38.4-38.4s-38.4 17.067-38.4 38.4c0 46.933-21.333 81.067-46.933 106.667-42.667 38.4-98.133 55.467-132.267 59.733-25.6 4.267-51.2 12.8-72.533 34.133s-51.2 98.133-12.8 123.733c25.6 17.067 42.667 51.2 51.2 81.067 12.8 25.6 21.333 46.933 38.4 64v0 0c8.533 8.533 25.6 25.6 29.867 46.933 4.267 12.8 8.533 29.867-4.267 38.4v0c-8.533 12.8-12.8 29.867-8.533 46.933 8.533 25.6 12.8 46.933 17.067 68.267s4.267 38.4 0 59.733c-4.267 21.333-21.333 64-46.933 93.867-12.8 17.067-25.6 25.6-38.4 25.6s-25.6 0-38.4 4.267c-8.533 4.267-21.333 12.8-25.6 21.333l-4.267 4.267c-4.267 8.533-21.333 12.8-38.4 17.067-21.333 4.267-46.933 4.267-68.267 4.267-46.933 0-85.333-8.533-119.467-29.867-25.6-25.6-46.933-51.2-59.733-89.6v-4.267c-12.8-29.867-17.067-64-17.067-98.133v0c0-29.867 4.267-59.733 17.067-81.067 0-8.533 4.267-17.067 0-25.6-4.267-25.6-25.6-25.6-12.8-59.733 8.533-17.067 21.333-34.133 29.867-46.933v0 0c17.067-17.067 25.6-38.4 38.4-64 12.8-29.867 25.6-64 55.467-81.067 12.8-4.267 21.333-17.067 21.333-34.133 0-34.133-4.267-64-29.867-85.333-17.067-17.067-42.667-29.867-72.533-34.133-34.133-4.267-89.6-21.333-132.267-59.733-29.867-29.867-46.933-64-46.933-110.933v0z" />
<glyph unicode="&#xe60f;" glyph-name="uniE60F" d="M900.267 960h-776.533c-21.333 0-38.4-17.067-38.4-38.4v-942.933c0-25.6 17.067-42.667 38.4-42.667h772.267c21.333 0 38.4 17.067 38.4 38.4v947.2c4.267 21.333-12.8 38.4-34.133 38.4v0zM857.6 17.067v0h-695.467v661.333h695.467v-661.333zM857.6 725.333v0h-695.467v153.6h695.467v-153.6zM337.067 170.667v0 0c46.933-46.933 106.667-72.533 174.933-72.533s132.267 29.867 174.933 72.533v0 0c46.933 46.933 72.533 106.667 72.533 174.933s-29.867 132.267-72.533 174.933v0c-46.933 46.933-106.667 72.533-174.933 72.533s-132.267-29.867-174.933-72.533c-46.933-46.933-72.533-106.667-72.533-174.933-4.267-68.267 25.6-128 72.533-174.933v0 0zM665.6 405.333v0c0 4.267 4.267 4.267 4.267 8.533 8.533-21.333 12.8-42.667 12.8-64s-4.267-42.667-12.8-64c0 0-4.267 4.267-4.267 8.533-8.533 17.067-17.067 34.133-17.067 55.467 4.267 17.067 8.533 38.4 17.067 55.467v0zM392.533 469.333v0 0 0c29.867 29.867 72.533 51.2 119.467 51.2s89.6-21.333 119.467-51.2v0c4.267-4.267 8.533-8.533 12.8-12.8-8.533-8.533-12.8-17.067-21.333-29.867-12.8-25.6-21.333-51.2-21.333-81.067s8.533-55.467 21.333-81.067c4.267-8.533 12.8-21.333 21.333-25.6-4.267-4.267-8.533-8.533-12.8-12.8v0c-29.867-29.867-72.533-51.2-119.467-51.2s-89.6 17.067-119.467 51.2v0 0c-34.133 29.867-51.2 72.533-51.2 123.733 0 46.933 17.067 89.6 51.2 119.467v0zM763.733 763.733v0c21.333 0 38.4 17.067 38.4 38.4s-17.067 38.4-38.4 38.4c-21.333 0-38.4-17.067-38.4-38.4s17.067-38.4 38.4-38.4v0zM640 763.733v0c21.333 0 38.4 17.067 38.4 38.4s-17.067 38.4-38.4 38.4c-21.333 0-38.4-17.067-38.4-38.4s17.067-38.4 38.4-38.4v0zM213.333 776.533v0h187.733c12.8 0 25.6 12.8 25.6 25.6s-8.533 21.333-25.6 21.333h-187.733c-12.8 0-21.333-8.533-21.333-21.333-4.267-12.8 8.533-25.6 21.333-25.6v0z" />
<glyph unicode="&#xe610;" glyph-name="home" d="M64 593.067v0c85.333 0 170.667 0 256 0 21.333 0 38.4-17.067 38.4-38.4s-17.067-38.4-38.4-38.4c-72.533 0-145.067 0-221.867 0v-72.533c273.067 0 550.4 0 823.467 0v72.533c-72.533 0-145.067 0-221.867 0-21.333 0-38.4 17.067-38.4 38.4s17.067 38.4 38.4 38.4c85.333 0 170.667 0 256 0 21.333 0 38.4-17.067 38.4-38.4v0-149.333c0-21.333-17.067-38.4-38.4-38.4v0h-46.933l-51.2-388.267c-4.267-17.067-17.067-29.867-38.4-29.867v0h-614.4c-21.333 0-34.133 17.067-38.4 34.133l-55.467 388.267h-46.933c-21.333 0-38.4 17.067-38.4 38.4v0 145.067c0 21.333 17.067 38.4 38.4 38.4v0zM285.867 307.2v0-213.333c0-12.8 8.533-21.333 21.333-21.333s21.333 8.533 21.333 21.333v213.333c0 12.8-8.533 21.333-21.333 21.333s-21.333-8.533-21.333-21.333v0zM422.4 307.2v0-213.333c0-12.8 8.533-21.333 21.333-21.333s21.333 8.533 21.333 21.333v213.333c0 12.8-8.533 21.333-21.333 21.333s-21.333-8.533-21.333-21.333v0zM558.933 307.2v0-213.333c0-12.8 8.533-21.333 21.333-21.333s21.333 8.533 21.333 21.333v213.333c0 12.8-8.533 21.333-21.333 21.333s-21.333-8.533-21.333-21.333v0zM695.467 307.2v0-213.333c0-12.8 8.533-21.333 21.333-21.333s21.333 8.533 21.333 21.333v213.333c0 12.8-8.533 21.333-21.333 21.333s-21.333-8.533-21.333-21.333v0zM840.533 934.4v0l-328.533-371.2-328.533 371.2c-12.8 17.067-34.133 21.333-51.2 4.267-17.067-12.8-17.067-34.133-4.267-51.2l354.133-405.333c0 0 0-4.267 4.267-4.267 17.067-12.8 38.4-12.8 51.2 4.267l358.4 405.333c12.8 17.067 12.8 38.4-4.267 51.2-17.067 17.067-38.4 12.8-51.2-4.267v0zM840.533 396.8v0h-657.067l51.2-375.467h554.667l51.2 375.467z" />
<glyph unicode="&#xe611;" glyph-name="yuesao" d="M512 366.933c-8.533 8.533-8.533 25.6 0 34.133s25.6 8.533 34.133 0l76.8-76.8c8.533-8.533 8.533-25.6 0-34.133s-25.6-8.533-34.133 0l-76.8 76.8zM98.133 298.667v0l273.067-273.067c12.8-12.8 38.4-12.8 51.2 0v0l264.533 260.267c12.8 12.8 12.8 38.4 0 51.2v0l-273.067 277.333c-12.8 12.8-38.4 12.8-51.2 0v0l-264.533-260.267c-12.8-17.067-12.8-38.4 0-55.467v0zM315.733-29.867v0l-273.067 277.333c-42.667 42.667-42.667 119.467 0 162.133l264.533 260.267c42.667 42.667 119.467 42.667 162.133 0v0l273.067-273.067c42.667-42.667 46.933-115.2 4.267-162.133h-4.267l-260.267-264.533c-46.933-42.667-119.467-42.667-166.4 0v0 0zM622.933 789.333v0l-4.267 4.267v4.267c-4.267 4.267-8.533 4.267-12.8 0l-38.4-38.4v-4.267c-8.533-4.267-12.8-4.267-12.8-8.533s0-4.267 4.267-8.533l251.733-251.733c4.267-4.267 8.533-4.267 12.8 0v0l38.4 38.4c4.267 4.267 4.267 8.533 0 12.8v0l-8.533 4.267c-12.8 12.8-17.067 34.133-4.267 46.933 12.8 17.067 17.067 38.4 21.333 59.733 0 21.333 0 42.667-8.533 59.733-8.533 12.8-4.267 34.133 8.533 46.933l64 59.733c4.267 4.267 8.533 12.8 8.533 17.067 0 8.533-4.267 12.8-8.533 17.067-4.267 21.333-8.533 25.6-17.067 25.6s-12.8-4.267-17.067-8.533l-59.733-64c-12.8-12.8-25.6-17.067-42.667-8.533-21.333 8.533-42.667 12.8-64 8.533-21.333 0-42.667-8.533-59.733-21.333-21.333-4.267-38.4-4.267-51.2 8.533v0zM652.8 866.133v0c21.333 8.533 46.933 12.8 72.533 17.067 25.6 0 51.2 0 76.8-8.533l42.667 42.667c21.333 21.333 46.933 29.867 72.533 29.867s55.467-8.533 72.533-29.867c21.333-21.333 29.867-46.933 29.867-72.533s-8.533-51.2-29.867-72.533l-46.933-46.933c8.533-25.6 8.533-51.2 8.533-72.533 0-25.6-8.533-46.933-17.067-72.533 8.533-12.8 12.8-29.867 12.8-46.933 0-21.333-8.533-42.667-25.6-59.733h-4.267l-38.4-38.4c-34.133-34.133-89.6-34.133-123.733 0v0l-251.733 251.733c-17.067 17.067-25.6 38.4-25.6 59.733s8.533 46.933 25.6 64v0l42.667 42.667c17.067 17.067 42.667 21.333 59.733 21.333s34.133-4.267 46.933-8.533v0zM409.6 268.8v0c-8.533 8.533-8.533 25.6 0 34.133s25.6 8.533 34.133 0l76.8-76.8c8.533-8.533 8.533-25.6 0-34.133s-25.6-8.533-34.133 0l-76.8 76.8zM311.467 170.667v0c-8.533 8.533-8.533 25.6 0 34.133s25.6 8.533 34.133 0l76.8-76.8c8.533-8.533 8.533-25.6 0-34.133s-25.6-8.533-34.133 0l-76.8 76.8z" />
<glyph unicode="&#xe612;" glyph-name="daibanli" d="M593.067 354.133v0c21.333 21.333 34.133 51.2 34.133 81.067s-12.8 59.733-34.133 81.067c-21.333 21.333-46.933 34.133-81.067 34.133-29.867 0-59.733-12.8-81.067-34.133v0c-21.333-21.333-34.133-51.2-34.133-81.067s12.8-59.733 34.133-81.067c21.333-21.333 51.2-34.133 81.067-34.133s59.733 12.8 81.067 34.133v0zM443.733 435.2v0c0 17.067 8.533 34.133 21.333 46.933v0c12.8 12.8 29.867 21.333 46.933 21.333s34.133-8.533 46.933-21.333c12.8-12.8 21.333-29.867 21.333-46.933s-8.533-34.133-21.333-46.933c-12.8-12.8-29.867-21.333-46.933-21.333s-34.133 8.533-46.933 21.333c-12.8 12.8-21.333 25.6-21.333 46.933v0zM977.067 640v0 0c-25.6 64-64 119.467-110.933 162.133-46.933 46.933-102.4 85.333-162.133 110.933s-123.733 38.4-192 38.4c-68.267 0-132.267-12.8-192-38.4v0c-51.2-21.333-93.867-51.2-132.267-85.333l-110.933 110.933c-17.067 17.067-42.667 17.067-55.467 0-8.533-4.267-12.8-17.067-12.8-25.6v-277.333c0-21.333 17.067-38.4 38.4-38.4h277.333c21.333 0 38.4 17.067 38.4 38.4 0 12.8-4.267 21.333-12.8 25.6l-106.667 110.933c29.867 25.6 68.267 46.933 106.667 64v0c51.2 21.333 102.4 34.133 162.133 34.133 55.467 0 110.933-12.8 162.133-34.133v0 0c51.2-21.333 98.133-51.2 136.533-89.6s68.267-85.333 89.6-136.533v0c21.333-51.2 29.867-102.4 29.867-162.133 0-55.467-12.8-110.933-29.867-162.133v0c-17.067-51.2-46.933-98.133-89.6-136.533-38.4-38.4-85.333-68.267-136.533-89.6s-102.4-29.867-162.133-29.867c-115.2 0-221.867 46.933-298.667 123.733-38.4 38.4-72.533 85.333-89.6 136.533v0c-21.333 51.2-29.867 102.4-29.867 162.133 0 21.333-17.067 38.4-38.4 38.4s-38.4-17.067-38.4-38.4c0-68.267 12.8-132.267 38.4-192v0c25.6-59.733 64-115.2 110.933-162.133 89.6-89.6 217.6-149.333 354.133-149.333 68.267 0 132.267 12.8 192 38.4s115.2 64 162.133 110.933c46.933 46.933 81.067 102.4 110.933 162.133 25.6 59.733 38.4 123.733 38.4 192-8.533 64-21.333 128-46.933 187.733v0zM89.6 674.133v0 140.8c46.933-46.933 93.867-93.867 140.8-140.8h-140.8z" />
<glyph unicode="&#xe613;" glyph-name="daifahuo" d="M977.067 891.733h-930.133c-21.333 0-42.667-17.067-42.667-42.667v-187.733c0-21.333 17.067-42.667 42.667-42.667h4.267v-588.8c0-21.333 17.067-42.667 42.667-42.667h836.267c21.333 0 42.667 17.067 42.667 42.667v588.8h4.267c21.333 0 42.667 17.067 42.667 42.667v187.733c0 21.333-21.333 42.667-42.667 42.667v0zM887.467 72.533v0h-750.933v546.133h750.933v-546.133zM934.4 704v0h-844.8v102.4h844.8v-102.4zM307.2 388.267v0c17.067-17.067 38.4-25.6 68.267-25.6h277.333c25.6 0 46.933 12.8 64 25.6v0c17.067 17.067 25.6 38.4 25.6 64s-8.533 46.933-25.6 64v0c-17.067 17.067-38.4 25.6-64 25.6h-277.333c-25.6 0-46.933-12.8-68.267-25.6v0c-17.067-17.067-25.6-42.667-25.6-64 0-25.6 8.533-46.933 25.6-64v0zM341.333 482.133v0 0c8.533 8.533 17.067 12.8 29.867 12.8h277.333c12.8 0 21.333-4.267 29.867-12.8v0c8.533-8.533 12.8-17.067 12.8-29.867s-4.267-21.333-12.8-29.867v0c-8.533-8.533-17.067-12.8-29.867-12.8h-273.067c-12.8 0-21.333 4.267-29.867 12.8v0c-8.533 8.533-12.8 17.067-12.8 29.867-4.267 12.8 0 21.333 8.533 29.867v0z" />
<glyph unicode="&#xe614;" glyph-name="daifukuan" d="M977.067 810.667v0 0c-25.6 25.6-59.733 42.667-98.133 42.667h-733.867c-38.4 0-72.533-17.067-98.133-42.667v0c-25.6-25.6-38.4-59.733-38.4-98.133v-550.4c0-38.4 17.067-72.533 38.4-98.133v0 0c25.6-25.6 59.733-42.667 98.133-42.667h733.867c38.4 0 72.533 17.067 98.133 38.4 25.6 25.6 38.4 59.733 38.4 98.133v554.667c0 38.4-12.8 72.533-38.4 98.133v0zM938.667 307.2v0h-294.4c-4.267 0-8.533 0-12.8 4.267v0c-4.267 4.267-4.267 8.533-4.267 12.8v221.867c0 4.267 0 8.533 4.267 8.533v0c8.533 4.267 8.533 8.533 12.8 8.533h294.4v-256zM938.667 610.133v0h-294.4c-17.067 0-34.133-8.533-42.667-17.067v0c-12.8-12.8-17.067-25.6-17.067-42.667v-221.867c0-17.067 8.533-34.133 17.067-42.667v0c12.8-8.533 25.6-17.067 42.667-17.067h294.4v-102.4c0-17.067-8.533-34.133-17.067-42.667-12.8-12.8-25.6-17.067-42.667-17.067h-733.867c-17.067 0-34.133 8.533-42.667 17.067-12.8 12.8-17.067 25.6-17.067 42.667v546.133c0 17.067 8.533 29.867 17.067 42.667v0c12.8 12.8 25.6 17.067 42.667 17.067h733.867c17.067 0 29.867-8.533 42.667-17.067 12.8-12.8 17.067-25.6 17.067-42.667v-102.4zM789.333 337.067v0c29.867 0 51.2 12.8 68.267 29.867s29.867 42.667 29.867 68.267c0 25.6-12.8 51.2-25.6 68.267v0c-17.067 17.067-42.667 29.867-68.267 29.867s-51.2-8.533-68.267-25.6v0c-17.067-17.067-29.867-42.667-29.867-68.267s12.8-51.2 29.867-68.267c12.8-21.333 38.4-34.133 64-34.133v0zM755.2 473.6v0 0c8.533 8.533 21.333 17.067 34.133 17.067s29.867-4.267 38.4-17.067v0c8.533-8.533 12.8-21.333 12.8-34.133s-4.267-25.6-12.8-38.4c-8.533-8.533-21.333-17.067-38.4-17.067-12.8 0-25.6 4.267-34.133 17.067-8.533 8.533-17.067 21.333-17.067 38.4 0 8.533 4.267 21.333 17.067 34.133v0z" />
<glyph unicode="&#xe615;" glyph-name="daijiejian" d="M529.067 896l366.933-187.733c8.533-4.267 12.8-8.533 12.8-12.8v0l102.4-183.467c8.533-17.067 4.267-38.4-12.8-46.933 0 0-4.267 0-4.267 0l-81.067-42.667v-204.8c0-12.8-8.533-25.6-21.333-29.867l-366.933-183.467c-8.533-4.267-21.333-4.267-29.867 0l-366.933 183.467c-12.8 4.267-17.067 17.067-17.067 29.867v0 204.8l-85.333 42.667c-17.067 8.533-25.6 29.867-17.067 46.933v0 0l102.4 183.467c4.267 8.533 12.8 12.8 17.067 17.067l366.933 183.467c12.8 4.267 21.333 4.267 34.133 0v0zM490.667 81.067v0 332.8l-55.467-102.4c-4.267-8.533-17.067-12.8-29.867-8.533v0l-230.4 115.2v-179.2l315.733-157.867zM490.667 529.067v0 285.867l-285.867-145.067 285.867-140.8zM533.333 814.933v0-285.867l285.867 145.067-285.867 140.8zM533.333 413.867v0-332.8l315.733 157.867v179.2l-230.4-115.2c-8.533-4.267-21.333-4.267-29.867 8.533l-55.467 102.4zM861.867 644.267v0l-320-157.867 76.8-136.533 320 162.133-76.8 132.267zM162.133 473.6v0l247.467-123.733 76.8 136.533-324.267 157.867-76.8-136.533 68.267-34.133c4.267 4.267 4.267 0 8.533 0v0z" />
<glyph unicode="&#xe616;" glyph-name="daipingjia" d="M59.733 209.067c-81.067 128-46.933 324.267 34.133 443.733 12.8 17.067 34.133 25.6 51.2 12.8 8.533-4.267 12.8-12.8 17.067-25.6v0c0-8.533 4.267-12.8 4.267-21.333 8.533 29.867 21.333 59.733 34.133 85.333 42.667 76.8 115.2 140.8 192 170.667 21.333 8.533 42.667-4.267 51.2-21.333 4.267-8.533 4.267-21.333 0-29.867-12.8-21.333-17.067-38.4-25.6-51.2 55.467 51.2 128 93.867 200.533 123.733 149.333 55.467 324.267 38.4 388.267-132.267 8.533-21.333-4.267-42.667-21.333-51.2h-4.267c-128-34.133-174.933-119.467-221.867-196.267-64-110.933-123.733-213.333-332.8-209.067 12.8-8.533 34.133-12.8 55.467-21.333 21.333-4.267 29.867-25.6 25.6-46.933-4.267-8.533-8.533-17.067-17.067-21.333-98.133-55.467-264.533-93.867-375.467-51.2-17.067-21.333-38.4-68.267-21.333-145.067v0h106.667c12.8 0 21.333-8.533 21.333-21.333s-8.533-25.6-21.333-25.6h-140.8c-17.067-4.267-38.4 8.533-42.667 29.867-17.067 98.133 17.067 170.667 42.667 204.8v0zM337.067-25.6v0h396.8c12.8 0 21.333 8.533 21.333 21.333s-8.533 25.6-21.333 25.6h-396.8c-12.8 0-21.333-8.533-21.333-21.333s8.533-25.6 21.333-25.6v0zM123.733 247.467v0c51.2-55.467 196.267-17.067 256 0-34.133 21.333-51.2 42.667-59.733 59.733-12.8 25.6-21.333 85.333 34.133 76.8 234.667-29.867 285.867 64 345.6 166.4 46.933 85.333 98.133 170.667 226.133 217.6-128 200.533-477.867-21.333-537.6-157.867-4.267-17.067-21.333-25.6-34.133-25.6-21.333 0-38.4 17.067-38.4 38.4 0 0 4.267 55.467 21.333 128-29.867-25.6-51.2-55.467-68.267-85.333-34.133-55.467-46.933-119.467-29.867-174.933 4.267-17.067 0-34.133-17.067-42.667-17.067-12.8-42.667-8.533-51.2 12.8-17.067 25.6-34.133 51.2-51.2 76.8-34.133-89.6-46.933-204.8 4.267-290.133v0z" />
<glyph unicode="&#xe617;" glyph-name="daishouhuo" d="M797.867 256v0c-21.333 0-38.4-17.067-38.4-38.4s17.067-38.4 38.4-38.4c21.333 0 38.4 17.067 38.4 38.4s-17.067 38.4-38.4 38.4zM691.2 430.933v0 128h153.6l64-128h-217.6zM930.133 384l8.533-21.333v-106.667h-29.867c-21.333 0-38.4-17.067-38.4-38.4v0c0-21.333-8.533-38.4-21.333-51.2v0c-12.8-12.8-29.867-21.333-51.2-21.333s-38.4 8.533-51.2 21.333v0 0c-12.8 12.8-21.333 29.867-21.333 51.2s-17.067 34.133-34.133 38.4v128h238.933zM947.2 179.2v0h34.133c21.333 0 38.4 17.067 38.4 38.4v153.6c0 4.267 0 12.8-4.267 17.067l-110.933 226.133c-4.267 12.8-21.333 25.6-38.4 25.6h-174.933v149.333c0 21.333-17.067 38.4-38.4 38.4h-610.133c-21.333 4.267-38.4-17.067-38.4-38.4v-571.733c0-21.333 17.067-38.4 38.4-38.4h85.333c8.533-25.6 21.333-51.2 38.4-68.267 29.867-29.867 64-42.667 106.667-42.667s81.067 17.067 106.667 42.667c17.067 17.067 34.133 42.667 38.4 68.267h230.4c8.533-25.6 21.333-51.2 38.4-68.267v0c25.6-29.867 64-46.933 106.667-46.933s76.8 17.067 106.667 42.667h4.267c21.333 21.333 34.133 46.933 42.667 72.533v0zM614.4 750.933v0-494.933h-226.133c-21.333 0-38.4-17.067-38.4-38.4v0c0-21.333-8.533-38.4-21.333-51.2s-34.133-21.333-51.2-21.333c-21.333 0-38.4 8.533-51.2 21.333s-21.333 29.867-21.333 51.2c0 21.333-17.067 38.4-38.4 38.4v0h-85.333v494.933h533.333zM273.067 256v0c21.333 0 38.4-17.067 38.4-38.4s-17.067-38.4-38.4-38.4c-21.333 0-38.4 17.067-38.4 38.4s17.067 38.4 38.4 38.4v0z" />
<glyph unicode="&#xe618;" glyph-name="addressManage" d="M503.467 947.2c119.467 0 230.4-51.2 311.467-128 149.333-149.333 170.667-384 51.2-558.933-46.933-72.533-115.2-128-196.267-157.867l-140.8-140.8c-12.8-12.8-38.4-17.067-55.467 0v0 0l-140.8 140.8c-76.8 34.133-140.8 89.6-192 157.867-119.467 170.667-98.133 409.6 51.2 558.933 81.067 81.067 192 128 311.467 128v0zM503.467 729.6v0c59.733 0 115.2-25.6 153.6-64s64-93.867 64-157.867c0-59.733-25.6-115.2-64-153.6s-93.867-64-153.6-64c-59.733 0-115.2 25.6-157.867 64-38.4 38.4-64 93.867-64 153.6s25.6 115.2 64 157.867c42.667 38.4 98.133 64 157.867 64v0zM627.2 631.467v0c-29.867 34.133-72.533 51.2-123.733 51.2-46.933 0-89.6-21.333-123.733-51.2-29.867-29.867-51.2-76.8-51.2-123.733s21.333-89.6 51.2-123.733c29.867-29.867 76.8-51.2 123.733-51.2s89.6 21.333 123.733 51.2c29.867 29.867 51.2 76.8 51.2 123.733 0 51.2-17.067 93.867-51.2 123.733v0zM759.467 763.733v0c-64 64-157.867 106.667-256 106.667s-192-42.667-256-106.667c-123.733-123.733-140.8-320-42.667-460.8 38.4-59.733 98.133-106.667 166.4-132.267 4.267 0 8.533-4.267 12.8-8.533l119.467-119.467 119.467 119.467c4.267 4.267 8.533 8.533 12.8 8.533 68.267 25.6 128 72.533 166.4 132.267 98.133 145.067 81.067 337.067-42.667 460.8v0z" />
<glyph unicode="&#xe619;" glyph-name="person_center" d="M149.333-21.333c0-21.333-17.067-38.4-38.4-38.4s-38.4 17.067-38.4 38.4c0 72.533 29.867 123.733 68.267 162.133 55.467 55.467 132.267 76.8 179.2 81.067 8.533 0 17.067 4.267 25.6 8.533 4.267 4.267 4.267 8.533 8.533 12.8-38.4 34.133-55.467 76.8-68.267 110.933-8.533 17.067-12.8 29.867-17.067 34.133v0 0 0 0c-17.067 17.067-38.4 42.667-51.2 76.8-17.067 34.133-17.067 68.267 0 98.133-8.533 29.867-12.8 64-12.8 98.133 0 42.667 4.267 85.333 21.333 123.733v4.267c17.067 55.467 51.2 93.867 93.867 123.733s98.133 42.667 157.867 46.933c21.333 0 55.467 0 85.333-4.267 34.133-4.267 68.267-21.333 85.333-46.933 42.667 4.267 76.8-17.067 106.667-51.2 34.133-38.4 59.733-98.133 64-132.267 4.267-25.6 4.267-51.2 0-81.067-4.267-21.333-8.533-46.933-12.8-68.267 21.333-34.133 17.067-68.267 4.267-102.4s-34.133-59.733-51.2-76.8v0 0 0c-4.267-4.267-8.533-17.067-17.067-34.133-17.067-42.667-34.133-85.333-68.267-115.2 0-4.267 4.267-8.533 8.533-12.8s12.8-8.533 25.6-8.533c46.933-4.267 123.733-25.6 179.2-81.067 38.4-38.4 68.267-93.867 68.267-162.133 0-21.333-17.067-38.4-38.4-38.4s-38.4 17.067-38.4 38.4c0 46.933-21.333 81.067-46.933 106.667-42.667 38.4-98.133 55.467-132.267 59.733-25.6 4.267-51.2 12.8-72.533 34.133s-51.2 98.133-12.8 123.733c25.6 17.067 42.667 51.2 51.2 81.067 12.8 25.6 21.333 46.933 38.4 64v0 0c8.533 8.533 25.6 25.6 29.867 46.933 4.267 12.8 8.533 29.867-4.267 38.4v0c-8.533 12.8-12.8 29.867-8.533 46.933 8.533 25.6 12.8 46.933 17.067 68.267s4.267 38.4 0 59.733c-4.267 21.333-21.333 64-46.933 93.867-12.8 17.067-25.6 25.6-38.4 25.6s-25.6 0-38.4 4.267c-8.533 4.267-21.333 12.8-25.6 21.333l-4.267 4.267c-4.267 8.533-21.333 12.8-38.4 17.067-21.333 4.267-46.933 4.267-68.267 4.267-46.933 0-85.333-8.533-119.467-29.867-25.6-25.6-46.933-51.2-59.733-89.6v-4.267c-12.8-29.867-17.067-64-17.067-98.133v0c0-29.867 4.267-59.733 17.067-81.067 0-8.533 4.267-17.067 0-25.6-4.267-25.6-25.6-25.6-12.8-59.733 8.533-17.067 21.333-34.133 29.867-46.933v0 0c17.067-17.067 25.6-38.4 38.4-64 12.8-29.867 25.6-64 55.467-81.067 12.8-4.267 21.333-17.067 21.333-34.133 0-34.133-4.267-64-29.867-85.333-17.067-17.067-42.667-29.867-72.533-34.133-34.133-4.267-89.6-21.333-132.267-59.733-29.867-29.867-46.933-64-46.933-110.933v0z" />
<glyph unicode="&#xe61b;" glyph-name="myService" d="M917.333 934.4l89.6-89.6c8.533-8.533 8.533-21.333 0-29.867l-145.067-179.2c-8.533-8.533-21.333-12.8-29.867-4.267 0 0 0 0-4.267 4.267l-34.133 34.133-174.933-179.2 285.867-285.867c51.2-51.2 51.2-140.8 0-192-51.2-55.467-140.8-55.467-192 0l-174.933 174.933-187.733-187.733c-21.333-21.333-46.933-29.867-72.533-29.867v0c-25.6 0-51.2 8.533-72.533 29.867l-132.267 132.267c-17.067 17.067-29.867 42.667-29.867 72.533v0 0c0 25.6 8.533 51.2 29.867 68.267l187.733 187.733-17.067 17.067c-34.133-4.267-68.267-4.267-102.4 4.267-38.4 12.8-72.533 34.133-98.133 64-12.8 8.533-21.333 21.333-29.867 34.133v0c-4.267 4.267-4.267 8.533-4.267 12.8 0 12.8 8.533 21.333 21.333 21.333h149.333l51.2 93.867-51.2 93.867h-149.333c-4.267 0-8.533 0-12.8 4.267-8.533 8.533-12.8 21.333-4.267 34.133 4.267 4.267 8.533 12.8 12.8 17.067v0 0c4.267 4.267 8.533 12.8 17.067 17.067 89.6 89.6 238.933 89.6 328.533 0 29.867-29.867 46.933-64 59.733-98.133 8.533-34.133 12.8-68.267 8.533-102.4l72.533-76.8 51.2-51.2 179.2 179.2-34.133 38.4c-8.533 8.533-8.533 25.6 0 34.133v0 0l179.2 145.067c8.533 0 21.333 0 29.867-8.533v0zM733.867 307.2v0c-4.267-8.533-8.533-17.067-17.067-25.6l-29.867-29.867c-12.8-12.8-34.133-21.333-51.2-21.333s-29.867 4.267-42.667 12.8l-25.6-25.6 174.933-174.933c34.133-34.133 93.867-34.133 128 0s34.133 93.867 0 128l-136.533 136.533zM294.4 494.933v0l25.6 25.6c-8.533 12.8-12.8 29.867-12.8 42.667 0 17.067 8.533 38.4 21.333 51.2l29.867 29.867c8.533 8.533 17.067 17.067 29.867 17.067 0 4.267 0 4.267 0 8.533 8.533 29.867 4.267 64-4.267 93.867s-21.333 55.467-46.933 76.8c-68.267 72.533-183.467 72.533-256 8.533h110.933c8.533 0 17.067-4.267 21.333-12.8l68.267-119.467c4.267-8.533 4.267-17.067 0-21.333l-38.4-55.467-34.133-59.733c-4.267-4.267-12.8-8.533-17.067-8.533h-110.933c21.333-21.333 46.933-34.133 72.533-42.667 29.867-8.533 64-8.533 93.867-4.267 8.533 0 17.067 0 21.333-4.267l25.6-25.6zM750.933 162.133v0c-29.867-29.867-29.867-76.8 0-102.4 29.867-29.867 76.8-29.867 106.667 0s29.867 76.8 0 102.4c-29.867 29.867-76.8 29.867-106.667 0v0zM780.8 132.267v0c12.8 12.8 29.867 12.8 38.4 0 12.8-12.8 12.8-29.867 0-38.4-8.533-12.8-29.867-12.8-38.4 0-8.533 8.533-8.533 25.6 0 38.4v0zM409.6 452.267v0c8.533 8.533 21.333 8.533 29.867 0s8.533-25.6 0-34.133l-238.933-238.933c-8.533-8.533-21.333-8.533-29.867 0s-8.533 25.6 0 34.133l238.933 238.933zM494.933 366.933v0c8.533 8.533 21.333 8.533 34.133 0 8.533-8.533 8.533-25.6 0-34.133l-238.933-238.933c-8.533-8.533-25.6-8.533-34.133 0s-8.533 21.333 0 34.133l238.933 238.933zM661.333 332.8v0l-256 251.733-21.333-21.333c4.267-4.267 12.8-12.8 17.067-17.067 12.8-12.8 12.8-38.4 0-55.467-89.6-89.6-179.2-183.467-273.067-273.067-4.267-4.267-8.533-12.8-8.533-17.067v0c0-4.267 4.267-12.8 8.533-17.067l132.267-132.267c4.267-4.267 8.533-8.533 17.067-8.533 4.267 0 12.8 4.267 17.067 8.533 89.6 89.6 179.2 179.2 273.067 273.067 12.8 17.067 38.4 17.067 55.467 0 4.267-4.267 12.8-8.533 17.067-17.067l21.333 25.6zM964.267 827.733v0l-64 64-145.067-115.2 89.6-89.6 119.467 140.8z" />
</font>
</defs>
</svg>
